<?xml version="1.0" encoding="UTF-8" standalone="no"?>
<!DOCTYPE svg PUBLIC "-//W3C//DTD SVG 1.1//EN" "http://www.w3.org/Graphics/SVG/1.1/DTD/svg11.dtd">
<svg width="100%" height="100%" viewBox="0 0 400 450" version="1.1" xmlns="http://www.w3.org/2000/svg" xmlns:xlink="http://www.w3.org/1999/xlink" xml:space="preserve" style="fill-rule:evenodd;clip-rule:evenodd;stroke-linejoin:round;stroke-miterlimit:1.41421;">
    <g id="Orange" transform="matrix(1,0,0,1,-94.3853,-34.4304)">
        <g transform="matrix(1,0,0,1,43.5443,-11.1392)">
            <rect x="91.392" y="55.696" width="309.873" height="83.038" style="fill:rgb(235,235,235);"/>
        </g>
        <g transform="matrix(1,0,0,1,-22.8132,-145.175)">
            <g id="Orange1">
                <text x="162.278px" y="199.672px" style="font-family:'Consolas-Bold', 'Consolas', monospace;font-weight:700;font-size:12px;">orange</text>
                <text x="162.278px" y="225.722px" style="font-family:'Consolas', monospace;font-size:12px;">calories: 47</text>
                <text x="162.278px" y="239.773px" style="font-family:'Consolas', monospace;font-size:12px;">color: orange</text>
                <text x="162.278px" y="253.824px" style="font-family:'Consolas', monospace;font-size:12px;">portionsPerDay: 5</text>
                <text x="162.278px" y="267.875px" style="font-family:'Consolas', monospace;font-size:12px;">weight: 100</text>
            </g>
        </g>
    </g>
    <g id="Fruit" transform="matrix(1,0,0,1,-94.3853,72.8952)">
        <g transform="matrix(1,0,0,1,43.5443,-11.1392)">
            <rect x="91.392" y="55.696" width="309.873" height="83.038" style="fill:rgb(235,235,235);"/>
        </g>
        <g transform="matrix(1,0,0,1,-22.8132,-145.175)">
            <g id="Orange2">
                <text x="162.278px" y="199.672px" style="font-family:'Consolas-Bold', 'Consolas', monospace;font-weight:700;font-size:12px;">Fruit</text>
                <text x="162.278px" y="225.722px" style="font-family:'Consolas', monospace;font-size:12px;">print</text>
            </g>
        </g>
    </g>
    <g id="Food" transform="matrix(1,0,0,1,-94.3853,177.628)">
        <g transform="matrix(1,0,0,1,43.5443,-11.1392)">
            <rect x="91.392" y="55.696" width="309.873" height="83.038" style="fill:rgb(235,235,235);"/>
        </g>
        <g transform="matrix(1,0,0,1,-22.8132,-145.175)">
            <g id="Food1">
                <text x="162.278px" y="199.672px" style="font-family:'Consolas-Bold', 'Consolas', monospace;font-weight:700;font-size:12px;">Food</text>
                <text x="162.278px" y="225.722px" style="font-family:'Consolas', monospace;font-size:12px;">caloriesPerDay</text>
            </g>
        </g>
    </g>
    <g id="Object" transform="matrix(1,0,0,1,-94.3853,288.065)">
        <g transform="matrix(1,0,0,1,43.5443,-11.1392)">
            <rect x="91.392" y="55.696" width="309.873" height="83.038" style="fill:rgb(235,235,235);"/>
        </g>
        <g transform="matrix(1,0,0,1,-22.8132,-145.175)">
            <g id="Food2">
                <text x="162.278px" y="199.672px" style="font-family:'Consolas-Bold', 'Consolas', monospace;font-weight:700;font-size:12px;">Object</text>
                <text x="162.278px" y="225.722px" style="font-family:'Consolas', monospace;font-size:12px;">hasOwnProperty</text>
                <text x="162.278px" y="239.773px" style="font-family:'Consolas', monospace;font-size:12px;">keys</text>
                <text x="162.278px" y="253.824px" style="font-family:'Consolas', monospace;font-size:12px;">values</text>
                <text x="162.278px" y="267.875px" style="font-family:'Consolas', monospace;font-size:12px;">freeze</text>
            </g>
        </g>
    </g>
    <g transform="matrix(1.09791e-17,0.179302,-0.480978,2.94514e-17,272.92,20.5781)">
        <path d="M398.082,169.154L398.082,152.822L521.111,152.822L521.111,137.657L583.698,160.988L521.111,184.32L521.111,169.154L398.082,169.154Z"/>
    </g>
    <g transform="matrix(1.09791e-17,0.179302,-0.480978,2.94514e-17,272.92,123.756)">
        <path d="M398.082,169.154L398.082,152.822L521.111,152.822L521.111,137.657L583.698,160.988L521.111,184.32L521.111,169.154L398.082,169.154Z"/>
    </g>
    <g transform="matrix(1.09791e-17,0.179302,-0.480978,2.94514e-17,272.92,233.155)">
        <path d="M398.082,169.154L398.082,152.822L521.111,152.822L521.111,137.657L583.698,160.988L521.111,184.32L521.111,169.154L398.082,169.154Z"/>
    </g>
</svg>
