<?xml version="1.0" encoding="UTF-8" standalone="no"?><!DOCTYPE svg PUBLIC "-//W3C//DTD SVG 1.1//EN" "http://www.w3.org/Graphics/SVG/1.1/DTD/svg11.dtd"><svg width="100%" height="100%" viewBox="0 0 148 81" version="1.1" xmlns="http://www.w3.org/2000/svg" xmlns:xlink="http://www.w3.org/1999/xlink" xml:space="preserve" style="fill-rule:evenodd;clip-rule:evenodd;stroke-linecap:round;stroke-linejoin:round;stroke-miterlimit:1.5;"><rect x="8.515" y="19.782" width="12.48" height="12.48" style="fill:#ebebeb;"/><rect x="8.515" y="19.782" width="12.48" height="12.48" style="fill:#a51a1a;"/><rect x="40.776" y="53.636" width="9.824" height="9.824" style="fill:#278800;"/><path d="M46.873,49.479l-2.92,0l0,-10.058l-2.712,0l4.172,-4.173l4.173,4.173l-2.713,0l0,10.058Z"/><rect x="24.048" y="19.782" width="12.48" height="12.48" style="fill:#a51a1a;"/><rect x="38.917" y="19.782" width="12.48" height="12.48" style="fill:#acacac;"/><rect x="54.45" y="19.782" width="12.48" height="12.48" style="fill:#acacac;"/><rect x="69.983" y="19.782" width="12.48" height="12.48" style="fill:#ebebeb;"/><rect x="69.983" y="19.782" width="12.48" height="12.48" style="fill:#acacac;"/><rect x="85.517" y="19.782" width="12.48" height="12.48" style="fill:#acacac;"/><rect x="100.386" y="19.782" width="12.48" height="12.48" style="fill:#acacac;"/><rect x="115.919" y="19.782" width="12.48" height="12.48" style="fill:#acacac;"/><text x="131.983px" y="27.532px" style="font-family:'Consolas', monospace;font-size:7px;">...</text><path d="M7.303,33.994l0,-16.029l30.536,-0.078l0,16.018l-30.536,0.089Z" style="fill:none;stroke:#75adfd;stroke-width:0.69px;"/></svg>