<?xml version="1.0" encoding="UTF-8" standalone="no"?><!DOCTYPE svg PUBLIC "-//W3C//DTD SVG 1.1//EN" "http://www.w3.org/Graphics/SVG/1.1/DTD/svg11.dtd"><svg width="100%" height="100%" viewBox="0 0 3980 2184" version="1.1" xmlns="http://www.w3.org/2000/svg" xmlns:xlink="http://www.w3.org/1999/xlink" xml:space="preserve" style="fill-rule:evenodd;clip-rule:evenodd;stroke-linecap:round;stroke-linejoin:round;stroke-miterlimit:1.5;"><g><path d="M2716.76,926.872l0,336.95l336.95,0l0,-336.95l-336.95,0Z" style="fill:#a51a1a;"/><path d="M2716.76,507.477l0,336.95l336.95,0l0,-336.95l-336.95,0Z" style="fill:#a51a1a;"/><path d="M2716.76,106.005l0,336.95l336.95,0l0,-336.95l-336.95,0Z" style="fill:#acacac;"/></g><rect x="1277.86" y="1724.59" width="265.258" height="265.258" style="fill:#278800;"/><path d="M1708.52,1904.72l0,-78.861l271.566,0l0,-73.228l112.658,112.658l-112.658,112.659l0,-73.228l-271.566,0Z"/><path d="M2918.05,1666.64l-78.861,0l0,-271.566l-73.228,0l112.658,-112.658l112.659,112.658l-73.228,0l0,271.566Z"/><g><path d="M2237.06,931.537l0,336.949l336.949,0l0,-336.949l-336.949,0Z" style="fill:#440081;"/><path d="M2237.06,512.142l0,336.95l336.949,0l0,-336.95l-336.949,0Z" style="fill:#acacac;"/><path d="M2237.06,110.67l0,336.95l336.949,0l0,-336.95l-336.949,0Z" style="fill:#acacac;"/></g><g><path d="M1731.72,931.537l0,336.949l336.949,0l0,-336.949l-336.949,0Z" style="fill:#580081;"/><path d="M1731.72,512.142l0,336.95l336.949,0l0,-336.95l-336.949,0Z" style="fill:#acacac;"/><path d="M1731.72,110.67l0,336.95l336.949,0l0,-336.95l-336.949,0Z" style="fill:#acacac;"/></g><g><path d="M768.55,935.441l0,336.95l336.95,0l0,-336.95l-336.95,0Z" style="fill:#81007b;"/><path d="M768.55,516.046l0,336.95l336.95,0l0,-336.95l-336.95,0Z" style="fill:#acacac;"/><path d="M768.55,114.574l0,336.95l336.95,0l0,-336.95l-336.95,0Z" style="fill:#acacac;"/></g><g><path d="M312.448,935.441l0,336.95l336.95,0l0,-336.95l-336.95,0Z" style="fill:#006a81;"/><path d="M312.448,516.046l0,336.95l336.95,0l0,-336.95l-336.95,0Z" style="fill:#006a81;"/><path d="M312.448,114.574l0,336.95l336.95,0l0,-336.95l-336.95,0Z" style="fill:#acacac;"/></g><g><path d="M3190.73,935.441l0,336.95l336.949,0l0,-336.95l-336.949,0Z" style="fill:#008148;"/><path d="M3190.73,516.046l0,336.95l336.949,0l0,-336.95l-336.949,0Z" style="fill:#acacac;"/><path d="M3190.73,114.574l0,336.95l336.949,0l0,-336.95l-336.949,0Z" style="fill:#acacac;"/></g><g><path d="M1255.65,931.537l0,336.949l336.95,0l0,-336.949l-336.95,0Z" style="fill:#816100;"/><path d="M1255.65,512.142l0,336.95l336.95,0l0,-336.95l-336.95,0Z" style="fill:#acacac;"/><path d="M1255.65,110.67l0,336.95l336.95,0l0,-336.95l-336.95,0Z" style="fill:#acacac;"/></g><path d="M2347.07,2120.28l0,-432.758l1384.24,-2.118l0,432.483l-1384.24,2.393Z" style="fill:none;stroke:#75adfd;stroke-width:18.56px;"/><g transform="matrix(6.48,0,0,6.48,176.912,276.425)"><text x="343.951px" y="235.104px" style="font-family:'Consolas', monospace;font-size:14.815px;">0 : Object</text><text x="343.951px" y="252.45px" style="font-family:'Consolas', monospace;font-size:14.815px;">1 : Null</text><text x="343.951px" y="269.797px" style="font-family:'Consolas', monospace;font-size:14.815px;">2 : Number</text></g><g transform="matrix(6.48,0,0,6.48,788.503,276.425)"><text x="343.951px" y="235.104px" style="font-family:'Consolas', monospace;font-size:14.815px;">3 : String</text><text x="343.951px" y="252.45px" style="font-family:'Consolas', monospace;font-size:14.815px;">4 : Boolean</text><text x="343.951px" y="269.797px" style="font-family:'Consolas', monospace;font-size:14.815px;fill:#e61919;">5 : Object</text></g></svg>